<svg xmlns="http://www.w3.org/2000/svg" width="37" height="36" viewBox="0 0 37 36" fill="none">
  <path d="M36.875 17.6501C36.875 17.6328 36.875 17.6155 36.875 17.5957C36.8602 15.249 36.0994 12.9071 34.6 11.0149C33.5536 9.69331 32.1625 8.7299 30.8895 7.64792C29.784 6.70922 28.9272 5.50866 28.0113 4.38715C26.3543 2.43069 24.1704 1.14862 21.7846 0.555755C21.7526 0.548344 21.7205 0.540933 21.691 0.531052C21.5925 0.506349 21.494 0.481646 21.3931 0.459414C20.5707 0.271673 19.7262 0.162981 18.8866 0.133337C18.7881 0.125926 18.7044 0.123456 18.6527 0.125926C18.5912 0.125926 18.4976 0.125926 18.3893 0.133337C17.6186 0.162981 16.8431 0.256851 16.0798 0.414949C14.3071 0.760788 12.6008 1.47717 11.1629 2.58385C9.88506 3.56702 8.92236 4.85898 7.91043 6.09906C5.92102 8.53475 3.03293 9.89834 1.57042 12.8157C1.07307 13.8113 0.745608 14.871 0.57572 15.9505C0.556023 16.0716 0.538788 16.1951 0.521553 16.3186C0.514167 16.3804 0.504319 16.4446 0.496932 16.5063C0.472311 16.7262 0.457538 16.946 0.447689 17.1659C0.447689 17.1881 0.445227 17.2128 0.445227 17.2351C0.435379 17.4599 0.435379 17.6847 0.442765 17.9095C0.442765 17.9416 0.442765 17.9737 0.442765 18.0058C0.450152 18.2009 0.462462 18.3961 0.479697 18.5888C0.489546 18.695 0.499394 18.8012 0.511705 18.9074C0.524016 19.0137 0.538788 19.1199 0.553561 19.2261C0.819472 21.0541 1.54088 22.8154 2.71778 24.2976C3.70017 25.5352 4.99033 26.4838 6.2017 27.4793C7.26781 28.3563 8.08278 29.4284 8.95191 30.493C9.86782 31.6145 10.9142 32.5434 12.069 33.2721C12.0739 33.2746 12.0764 33.277 12.0813 33.282C12.0862 33.2845 12.0911 33.2894 12.0985 33.2919C12.1551 33.3289 12.2118 33.3635 12.2709 33.3981C15.6785 35.5769 20.3885 35.7597 23.998 33.9811C24.3747 33.7958 24.7367 33.5834 25.0838 33.3512C26.3789 32.5458 27.546 31.4935 28.5874 30.2188C29.4664 29.1418 30.3109 28.1389 31.3869 27.2545C32.6081 26.2516 33.8687 25.2931 34.8191 24.0086C36.1856 22.1608 36.8652 19.9326 36.875 17.7044C36.875 17.6847 36.875 17.6649 36.875 17.6451V17.6501ZM13.6324 32.2914C12.2487 31.1477 11.2712 29.5914 10.8871 27.8745C10.8281 27.6152 11.0078 27.3632 11.2712 27.3336C11.4682 27.3113 11.6652 27.2866 11.8622 27.252C14.9595 26.711 17.3453 24.7151 18.6281 22.0768C18.7537 22.3411 18.8866 22.6005 19.0344 22.8525C20.5289 25.382 23.0895 26.9161 25.8791 27.3039C25.9382 26.9284 25.9653 26.548 25.9628 26.1676C24.2836 25.7378 22.7768 24.5446 21.7501 23.0081C19.8666 20.1895 19.64 16.3556 21.1543 13.3197C21.9889 11.6473 23.4637 10.0688 25.2192 9.34006C25.8939 9.06092 26.598 9.66367 26.4626 10.3825C26.1352 12.1191 25.2119 13.7396 23.8281 14.913C22.9344 15.6714 21.92 16.2099 20.8588 16.5261C20.8169 16.8818 20.7972 17.24 20.7972 17.5982C20.7972 17.5982 20.7948 17.5982 20.7923 17.5982C20.7923 17.6278 20.7923 17.66 20.7948 17.6896C20.7948 17.7094 20.7948 17.7291 20.7948 17.7514C20.7948 17.7514 20.7948 17.7514 20.7972 17.7514C20.8022 18.0923 20.8219 18.4332 20.8613 18.7691C23.2643 19.5127 25.3079 21.3505 26.1746 23.764C27.2505 26.758 26.2287 30.1373 23.8281 32.1728C23.7198 32.2642 23.6065 32.3507 23.4933 32.4347C20.4082 34.6159 16.6018 34.4875 13.6349 32.2939L13.6324 32.2914ZM13.6324 3.02356C16.9686 0.540933 21.0533 0.901593 24.062 3.35458C24.9927 4.21423 25.7338 5.28386 26.1696 6.50171C26.2804 6.8105 26.3666 7.12422 26.4331 7.44042C26.4848 7.69239 26.31 7.93694 26.0564 7.96659C23.7026 8.25067 21.4669 9.34994 19.901 11.2224C19.3889 11.8326 18.9654 12.502 18.6281 13.211C17.5546 10.9853 15.6957 9.19678 13.2163 8.38406C12.6254 8.19138 12.0197 8.06046 11.4091 7.97894C11.355 8.34701 11.3303 8.71755 11.3377 9.08315C11.3476 9.08562 11.3599 9.08809 11.3697 9.09056C15.0679 10.1182 17.0745 14.0311 17.1385 17.6476C17.0794 20.9108 15.5307 24.2383 12.522 25.7526C12.362 25.8316 12.2044 25.9033 12.0444 25.965C11.3796 26.2244 10.6877 25.6661 10.8084 24.9621V24.9473C11.3279 21.9953 13.6324 19.6485 16.4171 18.7716C16.4688 18.3862 16.4984 18.0083 16.5057 17.6451C16.4984 17.2795 16.4639 16.9016 16.4122 16.5236C15.7228 16.3161 15.0482 16.0123 14.4105 15.5997C11.7784 13.8977 10.2618 10.8222 10.8108 7.68744C11.1186 5.92861 12.0591 4.38468 13.3567 3.23848C13.4478 3.16437 13.5364 3.08779 13.63 3.01862L13.6324 3.02356ZM34.1543 18.6925C33.8983 21.2913 32.8322 23.3367 31.0717 24.8756C30.9536 24.9794 30.8378 25.0733 30.7246 25.1597C30.0647 25.6686 29.1168 25.2981 28.9248 24.4853C28.9248 24.4804 28.9223 24.4754 28.9198 24.4705C28.0015 20.6762 24.7637 18.4282 21.1813 17.6723C22.1613 17.4722 23.1117 17.1585 23.9956 16.7237C26.4257 15.5256 28.3068 13.332 28.9198 10.7778C29.1094 9.98233 30.0376 9.64143 30.7024 10.1157C30.9462 10.2886 31.1752 10.4764 31.3943 10.6765C33.3886 12.8404 34.4523 15.6442 34.1519 18.6901L34.1543 18.6925ZM5.92102 10.679C6.14015 10.4789 6.37159 10.2911 6.61288 10.1182C7.27766 9.6439 8.20588 9.98727 8.39547 10.7802C9.00854 13.332 10.8896 15.5281 13.3197 16.7262C14.2036 17.161 15.154 17.4747 16.134 17.6748C12.5516 18.4307 9.31384 20.6762 8.39547 24.473C8.39547 24.4779 8.393 24.4829 8.39054 24.4878C8.19603 25.2981 7.24811 25.6686 6.59072 25.1622C6.47746 25.0757 6.36174 24.9819 6.24356 24.8781C4.48313 23.3416 3.41703 21.2937 3.16096 18.695C2.86058 15.6491 3.92423 12.8454 5.91856 10.6814L5.92102 10.679Z" fill="#29165F"/>
</svg>